<svg width="132" height="80" viewBox="0 0 132 80" xmlns="http://www.w3.org/2000/svg" xmlns:xlink="http://www.w3.org/1999/xlink"><title>Pro</title><defs><path d="M26.157 1.406c.024-.39.36-.704.74-.704h.106c.385 0 .717.322.74.704L28 5.616h-2.1l.257-4.21z" id="a"/><path id="b" d="M6.458 27.18l2.33 1.698-.89 2.746h-2.88l-.89-2.746z"/></defs><g fill="none" fill-rule="evenodd"><g><path d="M27.314 52.79c-.34-.202-.667-.42-.985-.65h-7.29c-1.614 0-2.922-1.31-2.922-2.92 0-1.614 1.31-2.922 2.922-2.922h2.72c-.63-1.557-.976-3.26-.976-5.042H9.878C4.423 41.256 0 36.836 0 31.382c0-5.453 4.43-9.874 9.878-9.874H25.51c-.04-.325-.06-.657-.06-.993 0-4.493 3.65-8.136 8.14-8.136h33.347c3.398 0 6.31 2.086 7.528 5.042h30.788c4.492 0 8.135 3.65 8.135 8.135 0 .782-.11 1.538-.317 2.254h.177c7.423 0 13.44 6.02 13.44 13.446 0 5.942-3.852 10.984-9.195 12.762 2.306 1.438 3.84 3.998 3.84 6.91 0 4.492-3.648 8.135-8.134 8.135h-41.36c-3.022 0-5.66-1.65-7.062-4.097-1.13.85-2.538 1.355-4.06 1.355H26.324c-3.735 0-6.764-3.035-6.764-6.764 0-3.736 3.034-6.765 6.764-6.765h.99zm38.11 1.912c.193.187.375.385.544.594.2-.21.412-.407.634-.594h-1.178z" fill="#F2F7F9"/><path d="M19.115 5.822c-.78.227-1.598 1.047-1.825 1.824l-.16.552c-.228.78-.6.777-.827 0l-.16-.553c-.23-.78-1.05-1.6-1.828-1.827l-.552-.162c-.78-.228-.778-.6 0-.826l.55-.16c.78-.228 1.598-1.048 1.825-1.825l.16-.552c.228-.78.6-.776.827 0l.162.553c.228.78 1.05 1.6 1.827 1.827l.552.162c.78.23.777.6 0 .826l-.55.162zM120.2 76.562c-.78.227-1.598 1.047-1.825 1.824l-.16.55c-.228.78-.6.778-.827 0l-.162-.55c-.228-.78-1.05-1.6-1.827-1.828l-.553-.162c-.78-.23-.777-.6 0-.826l.55-.16c.78-.23 1.6-1.048 1.826-1.825l.16-.552c.228-.78.6-.777.827 0l.16.553c.23.78 1.05 1.6 1.828 1.827l.552.162c.78.228.778.6 0 .826l-.55.162z" fill="#D2DFE2"/><path d="M33.896 2.934c-.783.228-1.602 1.042-1.833 1.833l.13-.446c-.228.785-.598.79-.83 0l.13.446c-.23-.784-1.044-1.604-1.835-1.836l.446.13c-.784-.23-.79-.598 0-.83l-.447.13C30.44 2.134 31.26 1.32 31.49.53l-.13.446c.23-.784.6-.79.83 0L32.06.53c.23.783 1.045 1.603 1.836 1.835l-.447-.13c.784.23.79.598 0 .83l.446-.13zM122.18 64.83c-.784.23-1.602 1.044-1.833 1.834l.13-.446c-.23.784-.598.79-.83 0l.13.446c-.23-.784-1.044-1.604-1.835-1.836l.446.13c-.784-.23-.79-.6 0-.83l-.447.13c.785-.228 1.604-1.042 1.834-1.833l-.13.447c.23-.784.598-.79.83 0l-.13-.446c.23.784 1.045 1.604 1.836 1.836l-.447-.13c.784.23.79.6 0 .83l.447-.13z" fill="#E1ECEF"/><ellipse fill="#CBDDE3" cx="105.058" cy="76.93" rx="1" ry="1"/><ellipse fill="#E1ECEF" cx="18.76" cy="17.906" rx="1" ry="1"/><ellipse stroke="#D2DEE2" stroke-width=".735" cx="18.76" cy="17.906" rx="1.986" ry="1.99"/><ellipse fill="#CBDDE3" cx="32.039" cy="20.595" rx="1.764" ry="1.765"/></g><g transform="translate(42.5 16.67)"><rect fill="#D6E0F8" x="2.513" y="7.606" width="44.388" height="33.804" rx="6.72"/><path d="M40.01 5.556h-9.922V3.97c0-1.838-1.446-3.294-3.265-3.294h-7.665c-1.823 0-3.266 1.46-3.266 3.295v1.586H5.967C2.765 5.556 0 8.216 0 10.372v22.12c0 4.246 2.45 7.228 5.967 7.228h33.98c3.518 0 5.968-2.978 5.968-7.227v-22.12c.062-2.157-2.703-4.817-5.905-4.817zM17.71 3.97c0-.825.692-1.52 1.51-1.52h7.6c.817 0 1.508.695 1.508 1.52v1.586H17.71V3.97zM6.03 7.33h33.98c2.388 0 4.207 2.027 4.207 3.044v8.177c0 1.012-.818 1.9-1.884 1.9H25.625v-1.013c0-1.014-.752-1.84-1.694-2.027h-.503c-.943.126-1.695 1.013-1.695 2.027v1.014H3.642c-1.006 0-1.886-.825-1.886-1.9V10.37C1.822 9.36 3.644 7.328 6.03 7.328zm18.405 12.11v3.548c0 .442-.314.76-.753.825-.438-.062-.752-.38-.752-.824v-3.55c0-.442.314-.758.752-.824.373.062.753.442.753.825zM40.01 37.942H5.967c-2.512 0-4.207-2.156-4.207-5.45V21.718c.566.317 1.194.508 1.884.508h17.964c.062 0 .124.76.124.76 0 1.013.752 1.84 1.695 2.026h.504c.943-.125 1.695-1.013 1.695-2.026v-.696h16.708c.69 0 1.318-.192 1.884-.51v10.776c-.062 3.17-1.695 5.387-4.207 5.387z" fill="#4E5877"/></g><path d="M77.384 61.833c.37-.37.06-1.42.428-1.79l1.087-1.086c.246-.247.64-.254.892-.002l4.553 4.554c.246.245.252.638 0 .89l-1.088 1.088c-.4.4-1.48.12-1.83.47-1.824 1.823-3.225 4.36-3.225 4.36-.173.298-.546.71-.853.855 0 0-.996 1.218-3.657-1.442-2.66-2.66-1.52-3.78-1.52-3.78.15-.297.515-.68.82-.862 0 0 2.588-1.452 4.39-3.255z" fill="#FFD7D7"/><path d="M77.53 60.553c.35-.35.41-.66.45-1.448.022-.388.05-.54.045-.534l1.215-1.213c.002-.002.008-.002.006-.004l4.947 4.947c.004.004.004 0 0 .004l-1.218 1.217c-.02.02-.188.06-.593.09-.84.064-1.096.116-1.435.455-.155.154-.31.316-.465.484-.767.833-1.506 1.795-2.198 2.818-.292.432-.556.846-.788 1.227-.14.23-.24.4-.293.497-.14.235-.46.565-.638.65l-.138.067-.098.118.015-.02c-.03.035-.14.09-.37.08-.598-.02-1.472-.498-2.627-1.654-1.16-1.16-1.657-2.064-1.7-2.717-.018-.285.044-.42.07-.447l.13-.178c.106-.208.42-.54.638-.67.08-.047.253-.15.487-.292.388-.238.807-.508 1.244-.805.956-.652 1.858-1.34 2.648-2.045.234-.21.455-.42.664-.627z" stroke="#4E5877" stroke-width="1.4"/><path d="M82.05 59.835l13.3-14.037" stroke="#4E5877" stroke-width="2.1" stroke-linecap="square"/><g transform="rotate(45 12.074 108.032)"><use fill="#4E5877" xlink:href="#a"/><path stroke="#4E5877" stroke-width="1.4" d="M27.256 4.915h-.612l.212-3.467c0-.018.03-.046.04-.046h.107c.01 0 .04.03.04.046l.213 3.467z"/></g><path d="M75.05 65.45l4.9-4.21" stroke="#FBAEAE" stroke-width="1.4" stroke-linecap="round"/><path d="M95.804 60.674c-3.708-3.887-11.353-11.62-11.317-11.713.782-2.057.077-4.918-1.584-6.58-1.4-1.4-4.178-1.29-4.178-1.29-.388-.006-.486.204-.205.484l2.51 2.51s0 1.984-.496 2.48l-1.44 1.44c-.51.51-2.52.535-2.52.535l-2.51-2.51c-.273-.275-.51-.187-.516.2 0 0-.25 2.837 1.21 4.297 1.687 1.688 4.157 2.115 6.236 1.28.09-.035 8.226 7.92 12.188 11.66-.28 1.23.06 2.576 1.022 3.537 1.486 1.486 3.893 1.49 5.375.007 1.48-1.48 1.478-3.887-.008-5.373-1.02-1.02-2.477-1.342-3.768-.963z" stroke="#4E5877" stroke-width="1.4" fill="#CADDE3"/><g transform="rotate(-45 93.674 -62.044)"><use fill="#D6E0F8" xlink:href="#b"/><path stroke="#4E5877" stroke-width="1.4" d="M6.458 28.046l1.508 1.1-.577 1.778H5.526l-.577-1.78 1.508-1.098z"/></g><path d="M29.9 35.62c0-.387.32-.7.707-.7h1.386c.39 0 .707.31.707.7 0 .39-.32.703-.707.703h-1.386c-.39 0-.707-.312-.707-.702zm-2.8 0c0-.387.31-.7.7-.7.387 0 .7.31.7.7 0 .39-.31.703-.7.703-.387 0-.7-.312-.7-.702zm-4.2 0c0-.387.32-.7.707-.7h1.386c.39 0 .707.31.707.7 0 .39-.32.703-.707.703h-1.386c-.39 0-.707-.312-.707-.702zM17.647 39.13c0-.387.32-.7.694-.7h12.613c.383 0 .694.31.694.7 0 .388-.32.702-.694.702H18.34c-.382 0-.693-.31-.693-.702zm-4.44 0c0-.387.316-.7.7-.7h1.558c.388 0 .702.31.702.7 0 .388-.317.702-.702.702h-1.557c-.388 0-.702-.31-.702-.702zm-2.962 0c0-.387.314-.7.706-.7h.07c.39 0 .705.31.705.7 0 .388-.313.702-.705.702h-.07c-.39 0-.705-.31-.705-.702zm-4.145 0c0-.387.317-.7.702-.7H8.36c.387 0 .7.31.7.7 0 .388-.316.702-.7.702H6.8c-.388 0-.702-.31-.702-.702zM16.247 42.64c0-.388.32-.702.694-.702h12.613c.383 0 .694.31.694.702 0 .387-.32.702-.694.702H16.94c-.382 0-.693-.312-.693-.702zm-4.44 0c0-.388.316-.702.7-.702h1.558c.388 0 .702.31.702.702 0 .387-.317.702-.702.702h-1.557c-.388 0-.702-.312-.702-.702zM4 42.64c0-.388.32-.702.697-.702h5.606c.385 0 .697.31.697.702 0 .387-.32.702-.697.702H4.697c-.385 0-.697-.312-.697-.702zM27.906 46.85c0-.387.317-.7.702-.7h1.557c.388 0 .702.31.702.7 0 .39-.317.703-.702.703h-1.557c-.388 0-.702-.312-.702-.702zm-7.806 0c0-.387.32-.7.697-.7h5.606c.385 0 .697.31.697.7 0 .39-.32.703-.697.703h-5.606c-.385 0-.697-.312-.697-.702zM114.6 39.832c0-.387.32-.702.707-.702h1.386c.39 0 .707.312.707.702 0 .388-.32.702-.707.702h-1.386c-.39 0-.707-.31-.707-.702zm-2.8 0c0-.387.31-.702.7-.702.387 0 .7.312.7.702 0 .388-.31.702-.7.702-.387 0-.7-.31-.7-.702zm-4.2 0c0-.387.32-.702.707-.702h1.386c.39 0 .707.312.707.702 0 .388-.32.702-.707.702h-1.386c-.39 0-.707-.31-.707-.702zM119.5 43.342c0-.388-.32-.702-.694-.702h-12.612c-.383 0-.694.31-.694.702 0 .387.32.7.694.7h12.612c.383 0 .694-.31.694-.7zm4.44 0c0-.388-.316-.702-.7-.702h-1.558c-.387 0-.702.31-.702.702 0 .387.317.7.702.7h1.558c.387 0 .7-.31.7-.7zm2.962 0c0-.388-.314-.702-.706-.702h-.07c-.39 0-.704.31-.704.702 0 .387.314.7.705.7h.07c.39 0 .705-.31.705-.7zm4.145 0c0-.388-.317-.702-.702-.702h-1.557c-.388 0-.702.31-.702.702 0 .387.317.7.702.7h1.557c.388 0 .702-.31.702-.7zM116.806 35.62c0-.387.317-.7.702-.7h1.557c.388 0 .702.31.702.7 0 .39-.317.703-.702.703h-1.557c-.388 0-.702-.312-.702-.702zm-7.806 0c0-.387.32-.7.697-.7h5.606c.385 0 .697.31.697.7 0 .39-.32.703-.697.703h-5.606c-.385 0-.697-.312-.697-.702z" fill="#4E5877"/></g></svg>
