<svg width="127" height="80" viewBox="0 0 127 80" xmlns="http://www.w3.org/2000/svg" xmlns:xlink="http://www.w3.org/1999/xlink"><title>Client</title><defs><path d="M.567 4.272h13.6l-2.412 14.55c-.076.457-.513.827-.983.827h-6.81c-.466 0-.908-.38-.982-.828L.567 4.272z" id="a"/><path d="M2.275 14.047c-.308.003-.6-.242-.65-.54L.658 7.664c-.05-.3.17-.544.46-.544h12.5c.305 0 .51.243.454.56l-.988 5.724c-.053.31-.353.562-.655.564l-10.152.08z" id="b"/></defs><g fill="none" fill-rule="evenodd"><g><path d="M27.314 52.79c-.34-.202-.667-.42-.985-.65h-7.29c-1.614 0-2.922-1.31-2.922-2.92 0-1.614 1.31-2.922 2.922-2.922h2.72c-.63-1.557-.976-3.26-.976-5.042H9.878C4.423 41.256 0 36.836 0 31.382c0-5.453 4.43-9.874 9.878-9.874H25.51c-.04-.325-.06-.657-.06-.993 0-4.493 3.65-8.136 8.14-8.136h33.347c3.398 0 6.31 2.086 7.528 5.042h30.788c4.492 0 8.135 3.65 8.135 8.135 0 .782-.11 1.538-.317 2.254h.177c7.423 0 13.44 6.02 13.44 13.446 0 5.942-3.852 10.984-9.195 12.762 2.306 1.438 3.84 3.998 3.84 6.91 0 4.492-3.648 8.135-8.134 8.135h-41.36c-3.022 0-5.66-1.65-7.062-4.097-1.13.85-2.538 1.355-4.06 1.355H26.324c-3.735 0-6.764-3.035-6.764-6.764 0-3.736 3.034-6.765 6.764-6.765h.99zm38.11 1.912c.193.187.375.385.544.594.2-.21.412-.407.634-.594h-1.178z" fill="#F2F7F9"/><path d="M19.115 5.822c-.78.227-1.598 1.047-1.825 1.824l-.16.552c-.228.78-.6.777-.827 0l-.16-.553c-.23-.78-1.05-1.6-1.828-1.827l-.552-.162c-.78-.228-.778-.6 0-.826l.55-.16c.78-.228 1.598-1.048 1.825-1.825l.16-.552c.228-.78.6-.776.827 0l.162.553c.228.78 1.05 1.6 1.827 1.827l.552.162c.78.23.777.6 0 .826l-.55.162zM120.2 76.562c-.78.227-1.598 1.047-1.825 1.824l-.16.55c-.228.78-.6.778-.827 0l-.162-.55c-.228-.78-1.05-1.6-1.827-1.828l-.553-.162c-.78-.23-.777-.6 0-.826l.55-.16c.78-.23 1.6-1.048 1.826-1.825l.16-.552c.228-.78.6-.777.827 0l.16.553c.23.78 1.05 1.6 1.828 1.827l.552.162c.78.228.778.6 0 .826l-.55.162z" fill="#D2DFE2"/><path d="M33.896 2.934c-.783.228-1.602 1.042-1.833 1.833l.13-.446c-.228.785-.598.79-.83 0l.13.446c-.23-.784-1.044-1.604-1.835-1.836l.446.13c-.784-.23-.79-.598 0-.83l-.447.13C30.44 2.134 31.26 1.32 31.49.53l-.13.446c.23-.784.6-.79.83 0L32.06.53c.23.783 1.045 1.603 1.836 1.835l-.447-.13c.784.23.79.598 0 .83l.446-.13zM122.18 64.83c-.784.23-1.602 1.044-1.833 1.834l.13-.446c-.23.784-.598.79-.83 0l.13.446c-.23-.784-1.044-1.604-1.835-1.836l.446.13c-.784-.23-.79-.6 0-.83l-.447.13c.785-.228 1.604-1.042 1.834-1.833l-.13.447c.23-.784.598-.79.83 0l-.13-.446c.23.784 1.045 1.604 1.836 1.836l-.447-.13c.784.23.79.6 0 .83l.447-.13z" fill="#E1ECEF"/><ellipse fill="#CBDDE3" cx="105.058" cy="76.93" rx="1" ry="1"/><ellipse fill="#E1ECEF" cx="18.76" cy="17.906" rx="1" ry="1"/><ellipse stroke="#D2DEE2" stroke-width=".735" cx="18.76" cy="17.906" rx="1.986" ry="1.99"/><ellipse fill="#CBDDE3" cx="32.039" cy="20.595" rx="1.764" ry="1.765"/></g><path d="M82.16 21.612c0-1.09-.887-1.973-1.987-1.973H58.84c-1.098 0-1.987.877-1.987 1.972v19.914c0 1.09.89 1.973 1.992 1.973h5.9s-.407 3.975 1.947 3.975 7.425-3.976 7.425-3.976h6.054c1.1 0 1.99-.88 1.99-1.974V21.612z" fill="#D6E0F8"/><path d="M84.288 18.95c0-.776-.62-1.4-1.39-1.4H59.644c-.767 0-1.39.626-1.39 1.4v20.865c0 .768.63 1.398 1.392 1.398H67.47l-.08.766c0 .024-.006.078-.01.158-.033.546-.012 1.16.097 1.725.197 1.017.596 1.525 1.266 1.525.637 0 1.672-.387 2.948-1.085.48-.262.984-.562 1.505-.894.704-.45 1.403-.93 2.064-1.412.23-.168.44-.325.625-.465l.225-.172.19-.147h6.596c.768 0 1.392-.625 1.392-1.398V18.95z" stroke="#4E5877" stroke-width="1.391"/><path d="M69.647 29.202c0-1.86-1.337-3.368-2.985-3.368-1.65 0-2.986 1.508-2.986 3.368" stroke="#4E5877" stroke-width=".84"/><path d="M71.353 37.623c2.355 0 3.762-2.278 3.762-2.278.278-.37.187-.855-.226-1.07 0 0-1.182-.862-3.537-.862s-3.536.863-3.536.863c-.403.22-.513.704-.226 1.07 0 0 1.408 2.277 3.763 2.277z" stroke="#4E5877" stroke-width=".84" fill="#4E5877"/><path d="M71.353 35.097c1.413 0 2.032 1.11 2.032 1.11.29.364.203.842-.223 1.037 0 0-.396.38-1.81.38-1.412 0-1.808-.38-1.808-.38-.414-.21-.524-.687-.223-1.037 0 0 .62-1.11 2.033-1.11z" fill="#E1ECEF"/><path d="M79.03 29.202c0-1.86-1.337-3.368-2.986-3.368-1.65 0-2.985 1.508-2.985 3.368M79.477 25.29c-.575-1.77-2.312-2.79-3.88-2.28M62.803 25.29c.574-1.77 2.312-2.79 3.88-2.28" stroke="#4E5877" stroke-width=".84"/><g><path d="M63.023 36.59c0-1.098-.89-1.99-1.98-1.99h-21.02c-1.094 0-1.98.896-1.98 1.99v19.587c0 1.1.893 1.99 1.985 1.99h5.806s-.403 3.926 1.92 3.926c2.325 0 7.33-3.927 7.33-3.927h5.956c1.095 0 1.983-.895 1.983-1.99V36.59z" fill="#FFDCDC"/><path d="M65.116 33.94c0-.77-.62-1.392-1.384-1.392H40.818c-.76 0-1.384.626-1.384 1.393v20.567c0 .77.622 1.393 1.398 1.393H48.532l-.078.766c-.003.024-.007.078-.012.157-.03.538-.01 1.144.097 1.702.192 1 .583 1.5 1.24 1.5.627 0 1.647-.383 2.905-1.072.473-.258.97-.555 1.484-.883.694-.442 1.384-.917 2.037-1.393.228-.166.435-.32.617-.458l.222-.172.19-.148h6.493c.762 0 1.386-.626 1.386-1.393V33.94z" stroke="#4E5877" stroke-width="1.391"/><g><path d="M50.672 44.046c0-1.837-1.32-3.327-2.947-3.327-1.628 0-2.947 1.49-2.947 3.326" stroke="#4E5877" stroke-width=".84"/><path d="M52.356 52.363c2.325 0 3.702-2.235 3.702-2.235.28-.373.177-.87-.225-1.077 0 0-1.152-.845-3.477-.845s-3.477.846-3.477.846c-.406.223-.513.714-.226 1.078 0 0 1.377 2.235 3.702 2.235z" stroke="#4E5877" stroke-width=".84" fill="#4E5877"/><path d="M52.356 49.868c1.395 0 2.006 1.096 2.006 1.096.287.36.185.84-.22 1.025 0 0-.39.373-1.786.373-1.395 0-1.786-.374-1.786-.374-.41-.208-.517-.68-.22-1.026 0 0 .61-1.096 2.006-1.096z" fill="#E1ECEF"/><path d="M59.934 44.046c0-1.837-1.32-3.327-2.947-3.327-1.628 0-2.947 1.49-2.947 3.326M60.376 40.183c-.568-1.748-2.283-2.757-3.83-2.254M43.915 40.183c.568-1.748 2.283-2.757 3.83-2.254" stroke="#4E5877" stroke-width=".84"/></g></g><g transform="translate(75 34.57)"><use fill="#CADDE3" xlink:href="#a"/><path stroke="#4E5877" stroke-width=".84" d="M1.062 4.692h12.61l-2.33 14.062c-.044.254-.306.475-.57.475h-6.81c-.257 0-.527-.23-.568-.476L1.062 4.692z"/><use fill="#688391" xlink:href="#b"/><path stroke="#4E5877" stroke-width=".84" d="M2.272 13.627c-.102 0-.216-.094-.23-.188l-.97-5.845c-.007-.04.007-.056.045-.056h12.5c.044 0 .05.008.04.068l-.988 5.724c-.02.108-.146.216-.246.216l-10.152.08z"/><path d="M.62 1.71l-.015.057-.562 2.278c-.15.606.108 1.08.57 1.08h13.51c.462 0 .718-.483.57-1.08l-.577-2.336v-.43c0-.71-.568-1.28-1.27-1.28H1.89C1.18 0 .62.574.62 1.28v.43z" stroke="#4E5877" stroke-width=".84" fill="#ECF2F3"/><path d="M13.6 2.04l.248 1.106c.13.464-.095.84-.5.84H1.754c-.406 0-.383-.37-.252-.84 0 0 .065-.42.198-.936v-.644c0-.55.496-.996 1.12-.996h9.662c.618 0 1.12.442 1.12.996v.474z" fill="#CADDE3"/><ellipse fill="#CEF2E5" cx="7.226" cy="10.394" rx="1.842" ry="1.851"/><path d="M.708 1.85h13.318" stroke="#4E5877" stroke-width=".5" stroke-linecap="square"/></g><g fill="#4E5877"><path d="M21.4 45.832c0-.387-.32-.702-.707-.702h-1.386c-.39 0-.707.312-.707.702 0 .388.32.702.707.702h1.386c.39 0 .707-.31.707-.702zm2.8 0c0-.387-.31-.702-.7-.702-.387 0-.7.312-.7.702 0 .388.31.702.7.702.387 0 .7-.31.7-.702zm4.2 0c0-.387-.32-.702-.707-.702h-1.386c-.39 0-.707.312-.707.702 0 .388.32.702.707.702h1.386c.39 0 .707-.31.707-.702zM16.5 49.342c0-.388.32-.702.694-.702h12.612c.383 0 .694.31.694.702 0 .387-.32.7-.694.7H17.194c-.383 0-.694-.31-.694-.7zm-4.44 0c0-.388.316-.702.7-.702h1.558c.387 0 .702.31.702.702 0 .387-.317.7-.702.7H12.76c-.387 0-.7-.31-.7-.7zm-2.962 0c0-.388.314-.702.706-.702h.07c.39 0 .704.31.704.702 0 .387-.314.7-.705.7h-.07c-.39 0-.705-.31-.705-.7zm-4.145 0c0-.388.317-.702.702-.702h1.557c.388 0 .702.31.702.702 0 .387-.317.7-.702.7H5.655c-.388 0-.702-.31-.702-.7zM19.194 41.62c0-.387-.317-.7-.702-.7h-1.557c-.388 0-.702.31-.702.7 0 .39.317.703.702.703h1.557c.388 0 .702-.312.702-.702zm7.806 0c0-.387-.32-.7-.697-.7h-5.606c-.385 0-.697.31-.697.7 0 .39.32.703.697.703h5.606c.385 0 .697-.312.697-.702z"/></g><g fill="#4E5877"><path d="M104.3 38.62c0-.387.32-.7.707-.7h1.386c.39 0 .707.31.707.7 0 .39-.32.703-.707.703h-1.386c-.39 0-.707-.312-.707-.702zm-2.8 0c0-.387.31-.7.7-.7.387 0 .7.31.7.7 0 .39-.31.703-.7.703-.387 0-.7-.312-.7-.702zm-4.2 0c0-.387.32-.7.707-.7h1.386c.39 0 .707.31.707.7 0 .39-.32.703-.707.703h-1.386c-.39 0-.707-.312-.707-.702zM109.9 42.13c0-.387.32-.7.694-.7h12.612c.383 0 .694.31.694.7 0 .388-.32.702-.694.702h-12.612c-.383 0-.694-.31-.694-.702zm-4.44 0c0-.387.316-.7.7-.7h1.558c.387 0 .702.31.702.7 0 .388-.317.702-.702.702h-1.558c-.387 0-.7-.31-.7-.702zm-2.962 0c0-.387.314-.7.706-.7h.07c.39 0 .704.31.704.7 0 .388-.314.702-.705.702h-.07c-.39 0-.705-.31-.705-.702zm-4.145 0c0-.387.317-.7.702-.7h1.557c.388 0 .702.31.702.7 0 .388-.317.702-.702.702h-1.557c-.388 0-.702-.31-.702-.702zM112 45.64c0-.388.32-.702.694-.702h12.612c.383 0 .694.31.694.702 0 .387-.32.702-.694.702h-12.612c-.383 0-.694-.312-.694-.702zm-4.44 0c0-.388.316-.702.7-.702h1.558c.387 0 .702.31.702.702 0 .387-.317.702-.702.702h-1.558c-.387 0-.7-.312-.7-.702zm-7.807 0c0-.388.32-.702.697-.702h5.606c.385 0 .697.31.697.702 0 .387-.32.702-.697.702h-5.606c-.385 0-.697-.312-.697-.702zM106.94 49.85c0-.387.316-.7.7-.7h1.558c.388 0 .702.31.702.7 0 .39-.317.703-.702.703h-1.557c-.387 0-.7-.312-.7-.702zm-7.807 0c0-.387.32-.7.697-.7h5.607c.384 0 .696.31.696.7 0 .39-.32.703-.696.703H99.83c-.385 0-.697-.312-.697-.702z"/></g></g></svg>
